HIERARCHY
ROOT bottle1_body
{
	OFFSET 0.000000 0.000000 0.000000
	CHANNELS 6 Xposition Yposition Zposition Yrotation Xrotation Zrotation
	End Site
	{
		OFFSET 0.000000 0.000000 0.000000
	}
}
MOTION
Frames: 120
Frame Time: 0.008333334
1.528779 4.603803 3.274518 101.492000 4.865705 -0.038666 
1.529261 4.603915 3.274821 101.509100 4.926787 -0.014069 
1.529557 4.603892 3.274892 101.508600 4.931874 -0.015900 
1.529633 4.603853 3.274818 101.498800 4.918967 -0.021301 
1.529495 4.603826 3.274703 101.510900 4.925553 -0.014771 
1.529184 4.603856 3.274245 101.456800 4.938232 -0.085022 
1.528804 4.603764 3.273674 101.425300 4.948751 -0.097534 
1.528505 4.603609 3.273539 101.473300 4.899946 -0.026154 
1.528301 4.603549 3.273261 101.472500 4.902610 -0.031464 
1.528120 4.603558 3.273003 101.465200 4.877920 -0.035370 
1.527928 4.603623 3.272866 101.407300 4.894703 -0.092102 
1.527790 4.603654 3.273223 101.462400 4.924220 -0.095673 
1.527976 4.603579 3.273548 101.502400 4.900597 -0.036316 
1.528051 4.603688 3.273873 101.461100 4.971113 -0.082336 
1.528273 4.603794 3.274367 101.474900 4.952756 -0.063263 
1.528367 4.603676 3.274933 101.515700 4.899483 0.011117 
1.528230 4.603692 3.275130 101.499100 4.888000 -0.015900 
1.527734 4.603922 3.275320 101.457500 4.915839 -0.073669 
1.527239 4.603800 3.275450 101.444900 4.911071 -0.056274 
1.526648 4.603781 3.275593 101.465200 4.873414 -0.061554 
1.526005 4.603820 3.275687 101.460900 4.890783 -0.040863 
1.525314 4.603766 3.275914 101.499300 4.823978 -0.024597 
1.524439 4.603570 3.276573 101.522600 4.781570 0.003184 
1.523695 4.603695 3.277372 101.508300 4.777646 -0.011505 
1.523079 4.603746 3.277797 101.462100 4.791070 -0.019897 
1.522973 4.603856 3.277816 101.462600 4.805118 -0.030060 
1.523001 4.603789 3.278156 101.449100 4.788018 0.003281 
1.523363 4.603931 3.278396 101.452200 4.804488 -0.025513 
1.523738 4.603888 3.278597 101.417800 4.872904 -0.029511 
1.523920 4.604015 3.278470 101.462400 4.805543 -0.001742 
1.523848 4.603809 3.278734 101.427300 4.842099 0.012633 
1.523377 4.603900 3.278464 101.456700 4.790805 0.008319 
1.522599 4.603883 3.277801 101.434800 4.797361 -0.002429 
1.521983 4.603800 3.277226 101.445700 4.800066 -0.008911 
1.521280 4.603667 3.276568 101.427700 4.776886 -0.042664 
1.520945 4.603747 3.275973 101.402700 4.771156 -0.082489 
1.521222 4.603840 3.275528 101.411300 4.773459 -0.082520 
1.521805 4.603724 3.274969 101.413400 4.800252 -0.088776 
1.522396 4.603781 3.274789 101.437800 4.796942 -0.062469 
1.523044 4.603731 3.274499 101.448600 4.808251 -0.020844 
1.523393 4.603785 3.274072 101.459200 4.844957 -0.048096 
1.523186 4.603798 3.273755 101.454700 4.824259 -0.076599 
1.522493 4.603646 3.273427 101.431800 4.880736 -0.030914 
1.521525 4.603513 3.272723 101.432100 4.833622 -0.040985 
1.520520 4.603497 3.271659 101.418800 4.855129 -0.050873 
1.520148 4.603327 3.270799 101.397900 4.820612 -0.061188 
1.519783 4.603021 3.270281 101.459700 4.743164 -0.064728 
1.519726 4.602981 3.269781 101.458500 4.763517 -0.091064 
1.519598 4.602765 3.268980 101.433400 4.829099 -0.084198 
1.519398 4.602494 3.268440 101.437600 4.800184 -0.042694 
1.518244 4.602379 3.267450 101.399700 4.833871 -0.101746 
1.516903 4.602138 3.266811 101.450200 4.746408 -0.075745 
1.515209 4.602247 3.265609 101.408900 4.767162 -0.126770 
1.513303 4.602257 3.264676 101.353400 4.837472 -0.203095 
1.511903 4.602226 3.263823 101.304400 4.793818 -0.225617 
1.511301 4.602029 3.263482 101.332700 4.687160 -0.221008 
1.510928 4.602224 3.263408 101.330000 4.740282 -0.257568 
1.511193 4.602134 3.263598 101.323500 4.744807 -0.272553 
1.512218 4.601779 3.263556 101.407100 4.681537 -0.162842 
1.512972 4.602079 3.264220 101.324700 4.852762 -0.190064 
1.514323 4.601950 3.265604 101.395200 4.727513 -0.130951 
1.514786 4.601795 3.266533 101.413000 4.710097 -0.055847 
1.514894 4.601764 3.266992 101.436600 4.697911 -0.067566 
1.513962 4.601652 3.266840 101.428800 4.738000 -0.034546 
1.512519 4.601500 3.265821 101.402200 4.718766 -0.033234 
1.510842 4.601256 3.265031 101.407000 4.659902 -0.067200 
1.509380 4.601344 3.263968 101.401100 4.601744 -0.121094 
1.508101 4.601587 3.263271 101.363500 4.691282 -0.187653 
1.507733 4.601432 3.262629 101.362000 4.667289 -0.241791 
1.508025 4.601334 3.262000 101.404800 4.592065 -0.179199 
1.508663 4.601400 3.261987 101.308000 4.743890 -0.270477 
1.509995 4.601260 3.261963 101.309600 4.801882 -0.252106 
1.511399 4.600828 3.262312 101.399000 4.736962 -0.124115 
1.511773 4.600890 3.262594 101.393400 4.755697 -0.108582 
1.511343 4.601365 3.262407 101.291000 4.882058 -0.205170 
1.511325 4.600989 3.261943 101.402400 4.716314 -0.152802 
1.510780 4.601254 3.261377 101.403400 4.676652 -0.146301 
1.510213 4.601354 3.261175 101.379900 4.688625 -0.166962 
1.510109 4.601530 3.261415 101.322700 4.744410 -0.247864 
1.510785 4.601445 3.261797 101.343500 4.749471 -0.236237 
1.511606 4.601319 3.262363 101.360000 4.798261 -0.206421 
1.512076 4.601256 3.262980 101.366900 4.803319 -0.176880 
1.512069 4.601437 3.262824 101.352600 4.842819 -0.138092 
1.511717 4.601474 3.262355 101.333200 4.870446 -0.200348 
1.510831 4.601312 3.261637 101.341900 4.758204 -0.221283 
1.509959 4.601324 3.260986 101.326800 4.763651 -0.243683 
1.509250 4.601326 3.260720 101.318300 4.739330 -0.230103 
1.509278 4.601271 3.260710 101.334800 4.776852 -0.196045 
1.509493 4.601376 3.261022 101.339500 4.791834 -0.253937 
1.509960 4.601340 3.261122 101.335700 4.785228 -0.226929 
1.510276 4.601236 3.261616 101.338000 4.797543 -0.194214 
1.510521 4.601188 3.261532 101.326500 4.804046 -0.213013 
1.510506 4.601292 3.261429 101.266200 4.829205 -0.312561 
1.510291 4.601118 3.261204 101.296500 4.785135 -0.241486 
1.509700 4.601044 3.260885 101.291800 4.778553 -0.223755 
1.509383 4.601121 3.260896 101.333600 4.777425 -0.216797 
1.509054 4.601073 3.260797 101.336400 4.775107 -0.219025 
1.508894 4.601032 3.260647 101.308400 4.716927 -0.212982 
1.508796 4.601062 3.260823 101.348800 4.718097 -0.209564 
1.508646 4.600726 3.260504 101.400400 4.631717 -0.111023 
1.508475 4.600448 3.260317 101.358100 4.667885 -0.129639 
1.507766 4.600465 3.260107 101.352000 4.775720 -0.203644 
1.507306 4.599999 3.259321 101.371100 4.743044 -0.199036 
1.506252 4.599944 3.258340 101.337800 4.741520 -0.218140 
1.505525 4.599659 3.257945 101.373300 4.720185 -0.169891 
1.504342 4.599817 3.257803 101.188500 4.877755 -0.292694 
1.504424 4.599323 3.257307 101.422200 4.591703 -0.167175 
1.503938 4.599297 3.256868 101.337500 4.606223 -0.226654 
1.503569 4.599081 3.256489 101.383600 4.618505 -0.183655 
1.503358 4.598997 3.256428 101.368400 4.615948 -0.196137 
1.503009 4.598874 3.256302 101.360000 4.572881 -0.221375 
1.502963 4.598760 3.256325 101.374100 4.607970 -0.201172 
1.502394 4.598828 3.256857 101.343100 4.615540 -0.266846 
1.501963 4.598602 3.257173 101.340300 4.605342 -0.262421 
1.501215 4.598544 3.257530 101.372800 4.607494 -0.263306 
1.500125 4.598561 3.257573 101.359400 4.613809 -0.281311 
1.498589 4.598383 3.257896 101.325500 4.544503 -0.279450 
1.497387 4.598438 3.257853 101.333300 4.514982 -0.215698 
1.496974 4.598332 3.259022 101.385300 4.439818 -0.244690 
1.496649 4.598375 3.259916 101.391800 4.434683 -0.228027 
